<svg id="Layer_1" enable-background="new 0 0 512 512" height="512" viewBox="0 0 512 512" width="512" xmlns="http://www.w3.org/2000/svg"><g><g fill="#51697a"><g><path d="m183.165 279.57-90.782 125.86c-4.827 6.732-3.283 16.104 3.449 20.932 6.733 4.826 16.104 3.282 20.932-3.449l74.05-103.273z"/><path d="m419.614 405.43-90.782-125.86-7.702 39.995 74.104 103.348c4.828 6.731 14.198 8.275 20.932 3.449 6.731-4.829 8.275-14.2 3.448-20.932z"/></g><g><path d="m119.573 82.837c-10.887 0-19.712 8.825-19.712 19.712v19.712h39.424v-19.712c.001-10.887-8.825-19.712-19.712-19.712z"/><path d="m392.427 82.837c-10.887 0-19.712 8.825-19.712 19.712v19.712h39.424v-19.712c0-10.887-8.826-19.712-19.712-19.712z"/></g><g><path d="m81.99 122.261h75.168v35.168h-75.168z"/><path d="m354.843 122.261h75.168v35.168h-75.168z"/></g></g><g fill="#354c5b"><path d="m129.573 122.261h27.584v35.168h-27.584z"/><path d="m402.43 122.261h27.58v35.168h-27.58z"/></g><path d="m407.43 157.424c0 43.34-35.26 78.6-78.6 78.6v51.09c0 20.11-8.15 38.32-21.33 51.5s-31.38 21.33-51.5 21.33c-6.27 0-12.36-.79-18.17-2.28-31.43-8.07-54.66-36.6-54.66-70.55v-51.09c-43.34 0-78.6-35.26-78.6-78.6h30c0 26.8 21.8 48.6 48.6 48.6 6.26 0 11.85-3.82 14.26-9.59 9.57-22.91 32.19-39.01 58.57-39.01s49 16.1 58.57 39.01c2.41 5.77 8 9.59 14.26 9.59 26.8 0 48.6-21.8 48.6-48.6z" fill="#e5f5f9"/><path d="m407.43 157.424c0 43.34-35.26 78.6-78.6 78.6v51.09c0 20.11-8.15 38.32-21.33 51.5s-31.38 21.33-51.5 21.33c-6.27 0-12.36-.79-18.17-2.28 54.06-15.33 76-41.84 76-70.55v-51.09c0-8.29 6.72-15 15-15 35.07 0 63.6-28.53 63.6-63.6z" fill="#bfd5dd"/><g><path d="m296.68 286.56c0 22.46-18.22 40.68-40.68 40.68-3.99 0-7.85-.58-11.5-1.65-16.86-4.96-29.18-20.56-29.18-39.03s12.32-34.06 29.18-39.02c3.65-1.07 7.51-1.65 11.5-1.65 22.46 0 40.68 18.21 40.68 40.67z" fill="#5cd5ff"/><path d="m296.68 286.56c0 22.46-18.22 40.68-40.68 40.68-3.99 0-7.85-.58-11.5-1.65 16.86-4.96 29.18-20.56 29.18-39.03s-12.32-34.06-29.18-39.02c3.65-1.07 7.51-1.65 11.5-1.65 22.46 0 40.68 18.21 40.68 40.67z" fill="#5ab5ff"/></g></g><g><g><g><g><path d="m504.5 114.761h-84.861v-12.212c0-15.005-12.207-27.212-27.212-27.212s-27.212 12.207-27.212 27.212v12.212h-84.861c-4.143 0-7.5 3.357-7.5 7.5s3.357 7.5 7.5 7.5h66.989v27.668c0 4.143 3.357 7.5 7.5 7.5h14.397c-3.535 19.089-20.308 33.591-40.405 33.591-3.197 0-6.081-1.955-7.346-4.982-11.072-26.491-36.778-43.609-65.489-43.609s-54.417 17.118-65.489 43.609c-1.265 3.027-4.148 4.982-7.346 4.982-20.097 0-36.87-14.502-40.405-33.591h14.397c4.143 0 7.5-3.357 7.5-7.5v-27.668h66.989c4.143 0 7.5-3.357 7.5-7.5s-3.357-7.5-7.5-7.5h-84.861v-12.212c0-15.005-12.207-27.212-27.212-27.212s-27.212 12.207-27.212 27.212v12.212h-84.861c-4.143 0-7.5 3.357-7.5 7.5s3.357 7.5 7.5 7.5h66.989v27.668c0 4.143 3.357 7.5 7.5 7.5h15.408c3.599 41.5 36.767 74.669 78.268 78.268v33.95l-89.377 123.913c-7.229 10.082-4.908 24.167 5.175 31.397 3.962 2.84 8.54 4.205 13.079 4.205 7.012-.001 13.928-3.261 18.316-9.38l14.276-19.911c2.414-3.366 1.642-8.052-1.725-10.465-3.364-2.414-8.053-1.643-10.465 1.725l-14.276 19.91c-2.409 3.359-7.107 4.135-10.466 1.726-3.361-2.41-4.135-7.105-1.737-10.449l78.418-108.719c1.088 6.172 2.883 12.104 5.298 17.708l-38.403 53.559c-2.414 3.366-1.642 8.052 1.725 10.465 1.323.949 2.851 1.406 4.364 1.406 2.335 0 4.637-1.088 6.101-3.131l34.307-47.846c14.551 20.662 38.588 34.187 65.724 34.187 27.135 0 51.172-13.524 65.723-34.185l67.416 94.022c4.39 6.119 11.303 9.379 18.316 9.379 4.538-.001 9.119-1.366 13.081-4.206 10.081-7.229 12.402-21.314 5.161-31.414l-89.362-123.892v-33.954c41.5-3.598 74.669-36.767 78.268-78.268h15.408c4.143 0 7.5-3.357 7.5-7.5v-27.668h66.99c4.143 0 7.5-3.357 7.5-7.5s-3.357-7.5-7.5-7.5zm-124.285-12.212c0-6.733 5.479-12.212 12.212-12.212s12.212 5.479 12.212 12.212v12.212h-24.424zm-272.854 0c0-6.733 5.479-12.212 12.212-12.212s12.212 5.479 12.212 12.212v12.212h-24.424zm-17.872 47.38v-20.168h60.168v20.168zm324.031 259.871c2.409 3.361 1.636 8.057-1.724 10.466-3.362 2.411-8.058 1.636-10.468-1.724l-71.512-99.733c2.416-5.604 4.21-11.535 5.299-17.708zm-84.685-181.28c-4.143 0-7.5 3.357-7.5 7.5v51.092c0 36.025-29.31 65.335-65.335 65.335s-65.335-29.31-65.335-65.335v-51.092c0-4.143-3.357-7.5-7.5-7.5-36.666 0-66.938-27.905-70.699-63.591h15.106c3.678 27.395 27.206 48.591 55.593 48.591 9.265 0 17.581-5.573 21.186-14.197 8.732-20.895 29.006-34.395 51.649-34.395s42.917 13.5 51.649 34.395c3.604 8.624 11.921 14.197 21.186 14.197 28.386 0 51.915-21.196 55.593-48.591h15.106c-3.761 35.686-34.033 63.591-70.699 63.591zm93.676-78.591h-60.168v-20.168h60.168z"/></g></g></g><path d="m241.485 204.233h29.029c4.143 0 7.5-3.357 7.5-7.5s-3.357-7.5-7.5-7.5h-29.029c-4.143 0-7.5 3.357-7.5 7.5s3.358 7.5 7.5 7.5z"/><path d="m256 238.389c-26.563 0-48.175 21.611-48.175 48.176 0 26.563 21.611 48.175 48.175 48.175 11.296 0 22.279-3.99 30.925-11.235 3.175-2.66 3.592-7.391.931-10.565-2.659-3.175-7.391-3.593-10.565-.931-5.95 4.985-13.511 7.731-21.29 7.731-18.293 0-33.175-14.882-33.175-33.175s14.882-33.176 33.175-33.176 33.175 14.883 33.175 33.176c0 4.143 3.357 7.5 7.5 7.5s7.5-3.357 7.5-7.5c-.001-26.565-21.613-48.176-48.176-48.176z"/></g></svg>